<svg width="28" height="28" fill="none" xmlns="http://www.w3.org/2000/svg"><path d="M23.638 4.559c-5.27-5.217-13.823-5.217-19.092 0a13.278 13.278 0 000 18.903c5.27 5.217 13.822 5.217 19.092 0a13.278 13.278 0 000-18.903zm-6.682 14.177l-2.864-2.835-2.864 2.835c-.525.52-1.384.52-1.91 0a1.331 1.331 0 010-1.89l2.865-2.835-2.864-2.836a1.331 1.331 0 010-1.89 1.364 1.364 0 011.909 0l2.864 2.835 2.864-2.835a1.364 1.364 0 011.909 0 1.33 1.33 0 010 1.89L16 14.01l2.864 2.836a1.33 1.33 0 010 1.89c-.525.52-1.384.52-1.91 0z" fill="#E89F71"/></svg>