<svg width="15" height="21" fill="none" xmlns="http://www.w3.org/2000/svg"><path d="M11.449 20.037a6.607 6.607 0 01-.36-3.713c-.411.167-.86.26-1.33.26H8.71V14.55h1.05c.874 0 1.585-.72 1.585-1.607v-1.268h2.007v.587L15 11.181l-1.325-2.57a3.539 3.539 0 00-2.381-1.634L9.34 6.624a3.36 3.36 0 001.46-2.777C10.801 2.002 9.321.5 7.5.5 5.68.5 4.199 2.002 4.199 3.847a3.36 3.36 0 001.46 2.777l-1.953.353a3.538 3.538 0 00-2.38 1.634L0 11.18l1.65 1.08v-.836h2.006v1.517c0 .886.71 1.607 1.585 1.607h1.05v2.035h-1.05c-.47 0-.92-.093-1.33-.26a6.605 6.605 0 01-.36 3.713l-.186.463h8.27l-.186-.463z" fill="#E8B171"/></svg>