<svg width="24" height="36" fill="none" xmlns="http://www.w3.org/2000/svg"><path d="M23.201 22.781c.317-.735.343-1.401.079-1.983a2.14 2.14 0 00-.441-.627 3.057 3.057 0 00-.96-.631c.206-.715.153-1.34-.158-1.86a2.173 2.173 0 00-.315-.401c-.832-.852-1.461-.633-1.461-.633s.34-1.358-.644-2.32c-.984-.963-1.92-.552-2.732.273l-4.092 4.09c-.578-.216-1.488-.763-2.425-.656-1.668.192-2.103 1.307-2.338 2.241-.533 2.11-.374 5.256-.977 6.471-.741 1.495-2.193 2.75-2.193 2.75l5.692 5.692c2.317-2.318 4.547-2.918 6.21-3.614 3.77-1.577 5.621-3.466 6.562-4.48 1.952-2.102.468-3.927.194-4.312z" fill="#E8B171"/><path d="M12.876 10.7a.444.444 0 00-.117-.092l-2.79-1.526-2.212 2.011 1.376 3.162c.02.044.045.085.078.121l2.376 2.599 3.67-3.608-2.381-2.666zm-1.001-7.517L9.38.39a.439.439 0 00-.62-.035L7.118 1.823a.439.439 0 00-.035.62l.157.175-1.532 1.37-.157-.176a.439.439 0 00-.62-.035L2.576 5.879C-.798 8.893-.058 11.703.416 12.771a.44.44 0 00.384.26h.018a.44.44 0 00.385-.228c.734-1.346 1.41-2.346 1.853-2.742.747-.668 1.41-1.02 1.917-1.02.283 0 .524.108.715.322l1.044 1.169 2.681-2.396L7.888 6.43 9.42 5.06l.157.176a.44.44 0 00.62.035l1.643-1.468a.44.44 0 00.035-.62z" fill="#E8B171"/></svg>