<svg width="33" height="32" fill="none" xmlns="http://www.w3.org/2000/svg"><path d="M1.196 7.877L7.8 1.273 1.046.091A.893.893 0 00.013 1.124l1.183 6.753zm3.501 2.95L25.556 31.66a.893.893 0 00.63.261h.002a.892.892 0 00.631-.263l2.322-2.333L7.67 7.853l-2.973 2.974zm7.209-7.21L8.932 6.592 30.4 28.06l2.339-2.351a.892.892 0 00-.002-1.26L11.907 3.616zm20.834 5.29a.893.893 0 00-.003-1.264l-5.95-5.92a.892.892 0 00-1.26.002l-1.096 1.096 2.56 2.56a.892.892 0 11-1.261 1.261l-2.56-2.56-1.713 1.713 2.56 2.56a.892.892 0 11-1.262 1.262l-2.56-2.56-1.163 1.163 7.201 7.2 6.506-6.513zM8.135 19.117l2.56 2.56a.892.892 0 01-1.262 1.262l-2.56-2.56-1.713 1.713 2.56 2.56a.892.892 0 11-1.262 1.261l-2.56-2.56-1.095 1.096a.892.892 0 000 1.262L8.75 31.66a.893.893 0 001.262 0l6.5-6.508-7.21-7.201-1.168 1.167z" fill="#E8B171"/></svg>