<svg width="45" height="28" fill="none" xmlns="http://www.w3.org/2000/svg"><path fill-rule="evenodd" clip-rule="evenodd" d="M32.08.769c3.902.918 5.394 3.23 7.265 6.414H32.08V.77zM9.28 7.45c.763 0 1.318.374 1.318 1.248 0 .737-.588 1.335-1.315 1.337H1.318C.59 10.035 0 10.633 0 11.37c0 .739.59 1.337 1.318 1.337h11.866c.735 0 1.323.598 1.323 1.337 0 .738-.59 1.336-1.318 1.336H1.319A1.33 1.33 0 000 16.718c0 .738.59 1.337 1.318 1.337h2.9v4.01c0 .738.59 1.336 1.32 1.336h2.65c.472 2.36 2.528 4.099 4.952 4.099 2.423 0 4.48-1.74 4.952-4.099h13.386c.473 2.36 2.529 4.099 4.953 4.099 2.424 0 4.48-1.74 4.952-4.099h2.299c.728 0 1.318-.598 1.318-1.337v-8.02c0-3.921-4.08-4.182-4.084-4.188H30.762a1.327 1.327 0 01-1.319-1.336V.5H5.537C4.81.5 4.22 1.098 4.22 1.837v2.94H2.637c-.728 0-1.319.599-1.319 1.337s.59 1.337 1.319 1.337h6.642zm28.86 13.194a2.475 2.475 0 010 3.465c-1.518 1.54-4.126.444-4.126-1.733s2.608-3.272 4.126-1.733zm-23.291 0a2.475 2.475 0 010 3.465c-1.518 1.54-4.126.444-4.126-1.733s2.607-3.272 4.126-1.733z" fill="#E8B171"/></svg>