<svg width="36" height="44" fill="none" xmlns="http://www.w3.org/2000/svg"><path d="M17 25a2 2 0 104 0h-4zm4-5a2 2 0 10-4 0h4zm6.4-7.2a2 2 0 103.2 2.4l-3.2-2.4zm6.2-1.6a2 2 0 10-3.2-2.4l3.2 2.4zM13.29.558a2 2 0 101.692 3.625L13.29.558zm7.728 3.625A2 2 0 1022.71.558l-1.69 3.625zM32 26c0 7.732-6.268 14-14 14v4c9.941 0 18-8.059 18-18h-4zM18 40c-7.732 0-14-6.268-14-14H0c0 9.941 8.059 18 18 18v-4zM4 26c0-7.732 6.268-14 14-14V8C8.059 8 0 16.059 0 26h4zm14-14c7.732 0 14 6.268 14 14h4c0-9.941-8.059-18-18-18v4zm3 13v-5h-4v5h4zm9.6-9.8l3-4-3.2-2.4-3 4 3.2 2.4zM14.982 4.183c-.082.038-.124.047-.093.039a2.01 2.01 0 01.153-.034c.165-.03.402-.064.714-.094L15.374.112c-.387.038-.75.085-1.068.144a4.33 4.33 0 00-1.015.302l1.69 3.625zm.774-.089C16.378 4.034 17.168 4 18 4V0c-.93 0-1.85.038-2.626.112l.382 3.982zM18 4c.832 0 1.622.035 2.244.094l.382-3.982A28.431 28.431 0 0018 0v4zm2.244.094c.312.03.55.063.714.094.082.015.131.027.153.034.03.008-.011 0-.093-.039L22.71.558a4.329 4.329 0 00-1.015-.302c-.318-.06-.68-.106-1.068-.144l-.382 3.982z" fill="#E8B171"/></svg>