<svg width="19" height="19" fill="none" xmlns="http://www.w3.org/2000/svg"><path d="M16 9.5a7.87 7.87 0 00-1.31-4.369c-.852-1.273-2.055-2.23-3.44-2.733a6.557 6.557 0 00-4.282-.075c-1.4.455-2.631 1.368-3.521 2.611a7.84 7.84 0 00-1.443 4.32 7.898 7.898 0 001.176 4.413c.812 1.303 1.985 2.3 3.354 2.852a6.56 6.56 0 004.278.225" stroke="#E89F71" stroke-width="2" stroke-linecap="round"/><circle cx="9" cy="9" r="3" stroke="#E89F71" stroke-width="2"/><path d="M12 7v3a2 2 0 002 2v0a2 2 0 002-2v-.857" stroke="#E89F71" stroke-width="2" stroke-linecap="round"/></svg>