<svg width="19" height="19" fill="none" xmlns="http://www.w3.org/2000/svg"><path fill-rule="evenodd" clip-rule="evenodd" d="M2.172 2.3C1 3.472 1 5.357 1 9.13v1.333c0 3.771 0 5.657 1.172 6.828C3.343 18.462 5.229 18.462 9 18.462h1c3.771 0 5.657 0 6.828-1.172C18 16.12 18 14.233 18 10.462V9.129c0-2.69 0-4.42-.425-5.617v10.617a3.036 3.036 0 01-2.168-.91l-.643-.656c-.405-.413-.607-.62-.815-.748a2 2 0 00-2.098 0c-.208.128-.41.335-.815.748l-.093.094c-.346.353-.519.53-.686.606a1 1 0 01-1.141-.218c-.127-.133-.223-.36-.415-.816l-.051-.123c-.475-1.13-.712-1.694-1.057-1.998a2 2 0 00-1.995-.381c-.433.155-.862.592-1.72 1.467l-1.603 1.634V2.201c-.035.032-.07.065-.103.1z" fill="#fff"/><path d="M1.5 9c0-1.9.001-3.274.142-4.322.139-1.034.406-1.675.883-2.153.478-.477 1.119-.744 2.153-.883C5.726 1.502 7.1 1.5 9 1.5h1c1.9 0 3.274.001 4.322.142 1.034.139 1.676.406 2.153.883.477.478.744 1.119.883 2.153.14 1.048.142 2.422.142 4.322v2c0 1.9-.001 3.274-.142 4.322-.139 1.034-.406 1.675-.883 2.153-.478.477-1.119.744-2.153.883-1.048.14-2.422.142-4.322.142H9c-1.9 0-3.274-.001-4.322-.142-1.034-.139-1.675-.406-2.153-.883-.477-.478-.744-1.119-.883-2.153C1.502 14.274 1.5 12.9 1.5 11V9z" stroke="#fff"/><circle cx="13" cy="7" r="2" fill="#fff"/></svg>