<svg width="19" height="19" fill="none" xmlns="http://www.w3.org/2000/svg"><path d="M18.604 10.45h-1.979v-1.9h1.188c.218 0 .395-.213.395-.475v-5.7c0-.262-.177-.475-.395-.475h-1.188v-.475C16.625.639 16.092 0 15.437 0c-.654 0-1.187.64-1.187 1.425V1.9h-9.5v-.475C4.75.639 4.217 0 3.562 0c-.654 0-1.187.64-1.187 1.425V1.9H1.187c-.218 0-.395.213-.395.475v5.7c0 .262.177.475.395.475h1.188v1.9H.395c-.218 0-.395.213-.395.475v1.9c0 .262.177.475.396.475h.396v5.225c0 .262.177.475.396.475H2.77c.218 0 .396-.213.396-.475V13.3h12.666v5.225c0 .262.178.475.396.475h1.584c.218 0 .395-.213.395-.475V13.3h.396c.219 0 .396-.213.396-.475v-1.9c0-.262-.177-.475-.396-.475zm-3.562-9.025c0-.262.178-.475.396-.475.217 0 .395.213.395.475V1.9h-.791v-.475zm-11.875 0c0-.262.178-.475.395-.475.218 0 .396.213.396.475V1.9h-.791v-.475zM1.583 2.85h15.834v1.9H1.583v-1.9zm0 4.75V5.7h15.834v1.9H1.583zm14.25.95v1.9h-.791v-1.9h.791zm-1.583 0v1.9h-9.5v-1.9h9.5zm-10.292 0v1.9h-.791v-1.9h.791zm-1.583 9.5h-.792V13.3h.792v4.75zm15.042 0h-.792V13.3h.792v4.75zm.791-5.7H.792v-.95h17.417v.95z" fill="#fff"/></svg>