<svg width="19" height="19" fill="none" xmlns="http://www.w3.org/2000/svg"><path d="M.297 19C.133 19 0 18.81 0 18.578V.424C0 .19.133.002.297.002.46.002.594.19.594.424v18.154c0 .233-.133.422-.297.422zm.89-.002c-.164 0-.297-.188-.297-.422V.423c0-.233.133-.422.297-.422.164 0 .297.189.297.422v18.153c0 .234-.133.422-.297.422zM3.564 19c-.164 0-.297-.19-.297-.423V.422C3.267.19 3.4 0 3.564 0c.164 0 .297.189.297.422v18.155c0 .233-.133.422-.297.422zm2.376 0c-.165 0-.298-.19-.298-.423V.422C5.642.19 5.775 0 5.94 0c.164 0 .297.189.297.422v18.155c0 .233-.133.422-.297.422zm2.375 0c-.164 0-.297-.19-.297-.423V.422c0-.233.133-.422.297-.422.164 0 .297.189.297.422v18.155c0 .233-.133.422-.297.422zm2.375 0c-.164 0-.296-.19-.296-.423V.422c0-.233.132-.422.296-.422.165 0 .297.189.297.422v18.155c0 .233-.132.422-.297.422zm2.376 0c-.164 0-.297-.19-.297-.423V.422c0-.233.133-.422.297-.422.164 0 .297.189.297.422v18.155c0 .233-.133.422-.297.422zm2.376 0c-.165 0-.297-.19-.297-.423V.422c0-.233.133-.422.297-.422.164 0 .296.189.296.422v18.155c0 .233-.133.422-.296.422z" fill="#fff"/><path d="M1.187 18.999h-.89c-.164 0-.297-.189-.297-.422 0-.234.133-.423.297-.423h.89c.164 0 .297.19.297.423 0 .233-.133.422-.297.422zm16.626 0c-.164 0-.297-.189-.297-.422V.423c0-.234.133-.422.297-.422.164 0 .297.188.297.422v18.154c0 .233-.133.422-.297.422zm.89-.001c-.164 0-.297-.188-.297-.422V.423c0-.233.133-.422.297-.422.164 0 .297.189.297.422v18.153c0 .234-.133.422-.297.422z" fill="#fff"/><path d="M18.703 18.999h-.89c-.164 0-.297-.189-.297-.422 0-.234.133-.423.297-.423h.89c.164 0 .297.19.297.423 0 .233-.133.422-.297.422zm-.89-14.776H1.187c-.164 0-.297-.188-.297-.422 0-.233.133-.422.297-.422h16.626c.164 0 .297.189.297.422 0 .234-.133.422-.297.422zm0 13.087H1.187c-.164 0-.297-.188-.297-.422 0-.233.133-.422.297-.422h16.626c.164 0 .297.189.297.422 0 .233-.133.422-.297.422zm0-6.754H1.187c-.164 0-.297-.19-.297-.422 0-.234.133-.423.297-.423h16.626c.164 0 .297.189.297.422 0 .234-.133.423-.297.423zm.89-9.71h-.89c-.164 0-.297-.19-.297-.423 0-.233.133-.422.297-.422h.89c.164 0 .297.189.297.422 0 .234-.133.423-.297.423zm-17.516 0h-.89C.133.846 0 .657 0 .424 0 .19.133.002.297.002h.89c.164 0 .297.188.297.422 0 .233-.133.422-.297.422zm2.657.398c-.076 0-.152-.041-.21-.123l-.28-.4a.555.555 0 010-.597c.116-.165.303-.165.42 0l.28.4a.555.555 0 010 .597c-.058.082-.134.123-.21.123z" fill="#fff"/><path d="M3.274 1.256c-.076 0-.152-.041-.21-.124a.555.555 0 010-.597l.29-.411c.116-.165.304-.165.42 0a.555.555 0 010 .597l-.29.411c-.058.083-.134.124-.21.124zm2.949-.012c-.076 0-.152-.041-.21-.123l-.281-.4a.555.555 0 010-.597c.116-.165.304-.165.42 0l.28.4a.555.555 0 010 .597c-.057.082-.133.123-.21.123z" fill="#fff"/><path d="M5.652 1.256c-.076 0-.152-.041-.21-.124a.555.555 0 010-.597l.29-.411c.116-.165.304-.165.42 0a.555.555 0 010 .597l-.29.411c-.058.083-.134.124-.21.124zm2.949-.012c-.076 0-.152-.041-.21-.123l-.28-.4a.555.555 0 010-.597c.115-.165.303-.165.419 0l.28.4a.555.555 0 010 .597c-.057.082-.133.123-.209.123z" fill="#fff"/><path d="M8.03 1.256c-.076 0-.152-.041-.21-.124a.555.555 0 010-.597l.29-.411c.116-.165.304-.165.42 0a.555.555 0 010 .597l-.29.411c-.058.083-.134.124-.21.124zm2.949-.012c-.076 0-.152-.041-.21-.123l-.28-.4a.555.555 0 010-.597c.115-.165.303-.165.419 0l.28.4a.555.555 0 010 .597c-.057.082-.133.123-.21.123z" fill="#fff"/><path d="M10.409 1.256c-.076 0-.152-.041-.21-.124a.555.555 0 010-.597l.29-.411c.116-.165.303-.165.42 0a.555.555 0 010 .597l-.29.411c-.059.083-.134.124-.21.124zm2.948-.012c-.076 0-.152-.041-.21-.123l-.28-.4a.555.555 0 010-.597c.116-.165.303-.165.42 0l.28.4a.555.555 0 010 .597c-.058.082-.134.123-.21.123z" fill="#fff"/><path d="M12.787 1.256c-.076 0-.152-.041-.21-.124a.555.555 0 010-.597l.29-.411c.116-.165.303-.165.42 0a.555.555 0 010 .597l-.29.411c-.058.083-.134.124-.21.124zm2.949-.012c-.077 0-.152-.041-.21-.123l-.281-.4a.555.555 0 010-.597c.116-.165.304-.165.42 0l.28.4a.555.555 0 010 .597c-.058.082-.133.123-.21.123z" fill="#fff"/><path d="M15.165 1.256c-.076 0-.152-.041-.21-.124a.555.555 0 010-.597l.29-.411c.116-.165.303-.165.42 0a.555.555 0 010 .597l-.29.411c-.058.083-.134.124-.21.124z" fill="#fff"/></svg>