<svg width="13" height="19" fill="none" xmlns="http://www.w3.org/2000/svg"><path d="M12.928 5.24L9.125.154a.4.4 0 00-.497-.112L4.204 2.269a.385.385 0 00-.12.095L.086 7.115A.36.36 0 000 7.379l.738 8.279a.363.363 0 00.11.226l3.105 3.006a.396.396 0 00.44.075l7.256-3.228a.372.372 0 00.222-.296l.395-3.49a.357.357 0 00-.083-.272.39.39 0 00-.303-.139.382.382 0 00-.385.33l-.19 1.672-1.33-4.226 2.102-2.596-.207 1.831a.359.359 0 00.084.273.39.39 0 00.302.138.382.382 0 00.386-.331l.355-3.136a.36.36 0 00-.07-.256zM8.69.85l3.438 4.596-2.63 3.248L7.946 7.33l-3.01-4.59L8.69.85zM7.576 11.906a.36.36 0 00.028-.106l.352-3.453 1.25 1.097 1.812 5.756-6.046 2.69 2.604-5.984zm-3.23-8.67l2.9 4.424-.349 3.422-2.284-1.585a.402.402 0 00-.315-.062.386.386 0 00-.255.187l-2.642 4.722-.613-6.88 3.558-4.228zm.171 7.111l2.225 1.545-2.646 6.079-2.494-2.414 2.915-5.21z" fill="#fff"/></svg>