<svg width="18" height="23" fill="none" xmlns="http://www.w3.org/2000/svg"><g clip-path="url(#clip0)"><path d="M8.438 2l-7.5 4 7.5 4 7.5-4-7.5-4z" stroke="#fff" stroke-width="2" stroke-linejoin="round"/><path fill-rule="evenodd" clip-rule="evenodd" d="M3.901 9.939L.545 11.654a1 1 0 000 1.78l7.437 3.801a1 1 0 00.91 0l7.438-3.8a1 1 0 000-1.781l-3.356-1.715-2.198 1.123 2.901 1.482-5.24 2.678-5.24-2.678L6.1 11.062 3.901 9.939zm4.497-2.194a1 1 0 01.079 0l-.04.02-.039-.02z" fill="#FFFEFB"/><path fill-rule="evenodd" clip-rule="evenodd" d="M2.662 15.64L.545 16.72a1 1 0 000 1.782l7.437 3.8a1 1 0 00.91 0l7.438-3.8a1 1 0 000-1.782l-2.117-1.081-2.197 1.123 1.661.849-5.24 2.678-5.24-2.678 1.663-.85-2.198-1.122zm4.395-2.246l.925-.473a1 1 0 01.91 0l.926.473-1.38.705-1.38-.705z" fill="#fff"/></g><defs><clipPath id="clip0"><path fill="#fff" d="M0 0h18v23H0z"/></clipPath></defs></svg>