<svg width="9" height="9" fill="none" xmlns="http://www.w3.org/2000/svg"><path fill-rule="evenodd" clip-rule="evenodd" d="M8.968 6.686c-.056-.1-.203-.16-.425-.279-.221-.12-1.31-.696-1.513-.776-.203-.08-.35-.12-.498.12-.148.238-.572.776-.701.935-.13.159-.258.179-.48.06-.221-.12-.935-.372-1.78-1.184-.659-.633-1.103-1.414-1.232-1.653-.13-.238-.014-.367.097-.486.1-.107.221-.28.332-.418.11-.14.147-.24.221-.398.074-.16.037-.299-.018-.418-.056-.12-.498-1.294-.683-1.771-.18-.465-.362-.402-.498-.41A8.165 8.165 0 001.365 0a.788.788 0 00-.59.298C.572.538 0 1.114 0 2.288s.793 2.309.904 2.468c.11.159 1.562 2.568 3.783 3.601.528.246.94.393 1.262.503.53.181 1.013.156 1.395.094.425-.068 1.31-.577 1.495-1.134.184-.557.184-1.035.129-1.134z" fill="#fff"/></svg>