<svg width="10" height="11" fill="none" xmlns="http://www.w3.org/2000/svg"><path fill-rule="evenodd" clip-rule="evenodd" d="M5.934.035A4.676 4.676 0 017.435.46c.486.227.797.442 1.208.832.386.37.6.65.826 1.083.316.606.496 1.326.527 2.118.011.27.003.33-.062.408-.123.15-.393.125-.486-.043-.029-.056-.037-.104-.047-.32a5.355 5.355 0 00-.089-.803c-.19-1.006-.696-1.81-1.503-2.385C7.137.868 6.442.633 5.532.582c-.308-.017-.361-.028-.43-.079-.13-.097-.137-.326-.012-.432.076-.067.13-.076.393-.068a7 7 0 01.45.032zM1.816 1.048c.052.02.132.066.178.098.283.207 1.07 1.318 1.327 1.873.147.316.196.55.15.725-.048.187-.126.285-.479.599a2.753 2.753 0 00-.294.29.825.825 0 00-.097.37c.001.275.162.772.373 1.154.164.297.457.678.747.97.34.344.64.58.98.765.436.239.702.3.897.2a.706.706 0 00.117-.072c.015-.015.13-.17.254-.34.241-.335.296-.389.461-.451a.73.73 0 01.64.064c.163.093.52.338.75.515.304.234.953.819 1.04.935.155.21.182.48.078.776-.11.313-.539.9-.838 1.152-.27.226-.462.313-.715.326-.208.012-.294-.008-.56-.13-2.088-.95-3.756-2.367-5.08-4.314A12.657 12.657 0 01.169 3.386c-.21-.638-.22-.915-.048-1.242.075-.138.391-.48.622-.67.384-.314.56-.43.702-.464a.736.736 0 01.372.038z" fill="#fff"/><path fill-rule="evenodd" clip-rule="evenodd" d="M5.762 1.034c1.148.16 2.036.67 2.619 1.495.327.465.53 1.012.6 1.597.025.215.025.606-.001.671a.418.418 0 01-.172.179.441.441 0 01-.318-.011c-.145-.07-.189-.182-.189-.485 0-.467-.126-.96-.346-1.342A2.803 2.803 0 006.9 2.091c-.38-.216-.941-.377-1.453-.416-.186-.015-.288-.051-.358-.129a.317.317 0 01-.028-.407c.098-.146.25-.17.701-.105z" fill="#fff"/><path fill-rule="evenodd" clip-rule="evenodd" d="M6.019 2.057c.495.103.875.286 1.2.581.417.383.646.847.746 1.513.068.435.04.605-.118.747-.148.132-.422.137-.588.012-.121-.088-.159-.18-.187-.432a2.257 2.257 0 00-.196-.786c-.221-.46-.61-.7-1.27-.778-.31-.037-.402-.071-.503-.186a.448.448 0 01.141-.683c.096-.046.136-.051.347-.039.13.007.325.03.428.051z" fill="#fff"/></svg>