<svg width="17" height="18" viewBox="0 0 17 18" fill="none" xmlns="http://www.w3.org/2000/svg">
<path fill-rule="evenodd" clip-rule="evenodd" d="M13.7743 11.6966C14.2644 11.6958 14.739 11.5249 15.1173 11.2131C15.4956 10.9013 15.7541 10.468 15.8487 9.98684L16.9115 4.67018C16.973 4.36203 16.9656 4.04404 16.8896 3.73912C16.8137 3.4342 16.6712 3.14992 16.4723 2.9067C16.2734 2.66348 16.0231 2.46733 15.7395 2.33246C15.4558 2.19759 15.1458 2.12732 14.8317 2.12666H4.251V1.06333C4.251 0.781318 4.13902 0.510871 3.93971 0.311458C3.74041 0.112045 3.47011 0 3.18825 0H1.07233C0.790474 0 0.520144 0.112045 0.32084 0.311458C0.121537 0.510871 0.00958636 0.781318 0.00958636 1.06333C0.00958636 1.34534 0.121537 1.61579 0.32084 1.8152C0.520144 2.01462 0.790474 2.12666 1.07233 2.12666H2.13508V12.76C1.71429 12.7581 1.30241 12.8812 0.951618 13.1137C0.600827 13.3463 0.326889 13.6777 0.164548 14.0662C0.00220743 14.4546 -0.0412456 14.8825 0.0396836 15.2956C0.120613 15.7088 0.322283 16.0886 0.619154 16.387C0.916024 16.6854 1.29473 16.8889 1.70729 16.9717C2.11986 17.0545 2.54774 17.013 2.93668 16.8523C3.32562 16.6917 3.65813 16.4191 3.8921 16.0691C4.12608 15.7192 4.251 15.3077 4.251 14.8866H11.6573C11.6589 15.3052 11.7845 15.7139 12.0182 16.0611C12.2518 16.4083 12.583 16.6785 12.97 16.8375C13.357 16.9965 13.7823 17.0372 14.1924 16.9546C14.6025 16.8719 14.9789 16.6694 15.2742 16.3729C15.5694 16.0763 15.7702 15.6989 15.8512 15.2882C15.9322 14.8776 15.8897 14.4521 15.7293 14.0656C15.5688 13.679 15.2975 13.3487 14.9495 13.1163C14.6016 12.884 14.1926 12.76 13.7743 12.76H4.251V11.6966H13.7743ZM14.837 4.25332L13.7743 9.56998H4.251V4.25332H14.8317H14.837Z" fill="white"/>
</svg>
