<svg width="28" height="28" viewBox="0 0 28 28" fill="none" xmlns="http://www.w3.org/2000/svg">
<path d="M23.6377 4.55895C18.3684 -0.658292 9.81522 -0.658292 4.54586 4.55895C-0.723501 9.7762 -0.723502 18.2448 4.54586 23.462C9.81521 28.6793 18.3684 28.6793 23.6377 23.462C28.9071 18.2448 28.9071 9.7762 23.6377 4.55895ZM16.9556 18.7362L14.0918 15.9008L11.228 18.7362C10.703 19.2561 9.84385 19.2561 9.31883 18.7362C8.7938 18.2164 8.7938 17.3658 9.31883 16.8459L12.1826 14.0105L9.31883 11.175C8.7938 10.6552 8.7938 9.80455 9.31883 9.28472C9.84385 8.76488 10.703 8.76488 11.228 9.28472L14.0918 12.1202L16.9556 9.28472C17.4806 8.76488 18.3397 8.76488 18.8648 9.28472C19.3898 9.80455 19.3898 10.6552 18.8648 11.175L16.001 14.0105L18.8648 16.8459C19.3898 17.3658 19.3898 18.2164 18.8648 18.7362C18.3397 19.2561 17.4806 19.2561 16.9556 18.7362Z" fill="#E89F71"/>
</svg>
