<svg width="24" height="36" viewBox="0 0 24 36" fill="none" xmlns="http://www.w3.org/2000/svg">
<path d="M23.2015 22.7813C23.5183 22.0458 23.544 21.38 23.2797 20.7983C23.1768 20.5714 23.028 20.3597 22.839 20.1708C22.5211 19.853 22.1479 19.6539 21.8784 19.54C22.0853 18.825 22.0322 18.2001 21.7212 17.6807C21.6359 17.5378 21.5286 17.4041 21.4061 17.2788C20.5739 16.4273 19.9448 16.6458 19.9448 16.6458C19.9448 16.6458 20.2848 15.288 19.3007 14.3254C18.3166 13.3628 17.3809 13.7741 16.569 14.5992L12.4769 18.6896C11.8989 18.4725 10.9893 17.9257 10.0525 18.033C8.38384 18.2248 7.94899 19.3404 7.7137 20.2743C7.18114 22.3841 7.33952 25.5298 6.7368 26.7452C5.99555 28.2397 4.54395 29.4947 4.54395 29.4947L10.2357 35.1865C12.5531 32.8691 14.7827 32.2689 16.4463 31.5728C20.2164 29.9956 22.0671 28.1073 23.0084 27.0933C24.9604 24.9906 23.476 23.1656 23.2015 22.7813Z" fill="#E8B171"/>
<path d="M12.8758 10.7006C12.8422 10.6632 12.8029 10.6319 12.759 10.6078L9.96842 9.08179L7.75659 11.0934L9.13269 14.255C9.1521 14.2994 9.17844 14.3403 9.21127 14.376L11.5871 16.975L15.2577 13.367L12.8758 10.7006Z" fill="#E8B171"/>
<path d="M11.8748 3.18259L9.38023 0.390004C9.30271 0.303174 9.19384 0.250761 9.0776 0.244176C8.96171 0.23724 8.84731 0.277538 8.76057 0.355061L7.11713 1.82317C6.93619 1.98472 6.92065 2.26215 7.08219 2.44301L7.2389 2.61842L5.70679 3.98706L5.55008 3.81173C5.38871 3.63096 5.11128 3.61525 4.93033 3.77679L2.57645 5.87949C-0.797693 8.8935 -0.05793 11.7029 0.416515 12.771C0.484381 12.9236 0.633106 13.0246 0.799917 13.0314C0.805887 13.0315 0.811945 13.0317 0.817739 13.0317C0.977878 13.0317 1.12608 12.9443 1.20325 12.8028C1.93678 11.4567 2.6121 10.4571 3.0559 10.0606C3.80304 9.39305 4.46598 9.0402 4.97282 9.0402C5.25614 9.0402 5.49687 9.14872 5.688 9.36285L6.73189 10.5317L9.41324 8.13644L7.88798 6.429L9.42009 5.06036L9.57663 5.23568C9.73817 5.41654 10.0156 5.43217 10.1965 5.27063L11.84 3.80252C12.0207 3.64088 12.0363 3.36336 11.8748 3.18259Z" fill="#E8B171"/>
</svg>
