<svg width="36" height="44" viewBox="0 0 36 44" fill="none" xmlns="http://www.w3.org/2000/svg">
<path d="M17 25C17 26.1046 17.8954 27 19 27C20.1046 27 21 26.1046 21 25H17ZM21 20C21 18.8954 20.1046 18 19 18C17.8954 18 17 18.8954 17 20H21ZM27.4 12.8C26.7373 13.6837 26.9163 14.9373 27.8 15.6C28.6837 16.2627 29.9373 16.0837 30.6 15.2L27.4 12.8ZM33.6 11.2C34.2627 10.3163 34.0837 9.06274 33.2 8.4C32.3163 7.73726 31.0627 7.91634 30.4 8.8L33.6 11.2ZM13.2908 0.558113C12.2898 1.02509 11.8568 2.21512 12.3238 3.21612C12.7908 4.21713 13.9808 4.65004 14.9818 4.18307L13.2908 0.558113ZM21.0182 4.18307C22.0192 4.65004 23.2092 4.21713 23.6762 3.21612C24.1432 2.21512 23.7102 1.02509 22.7092 0.558112L21.0182 4.18307ZM32 26C32 33.732 25.732 40 18 40V44C27.9411 44 36 35.9411 36 26H32ZM18 40C10.268 40 4 33.732 4 26H0C0 35.9411 8.05887 44 18 44V40ZM4 26C4 18.268 10.268 12 18 12V8C8.05887 8 0 16.0589 0 26H4ZM18 12C25.732 12 32 18.268 32 26H36C36 16.0589 27.9411 8 18 8V12ZM21 25V20H17V25H21ZM30.6 15.2L33.6 11.2L30.4 8.8L27.4 12.8L30.6 15.2ZM14.9818 4.18307C14.9004 4.22108 14.8581 4.22999 14.8886 4.22157C14.9108 4.21545 14.9599 4.20345 15.0419 4.18811C15.2068 4.15727 15.4444 4.12406 15.7559 4.09419L15.374 0.11246C14.9869 0.149589 14.6242 0.196861 14.3063 0.25632C14.029 0.308214 13.642 0.394247 13.2908 0.558113L14.9818 4.18307ZM15.7559 4.09419C16.3775 4.03457 17.168 4 18 4L18 0C17.0709 2.90728e-08 16.1496 0.0380679 15.374 0.11246L15.7559 4.09419ZM18 4C18.832 4 19.6225 4.03457 20.2441 4.09419L20.626 0.11246C19.8504 0.0380678 18.9291 -2.90728e-08 18 0L18 4ZM20.2441 4.09419C20.5556 4.12406 20.7932 4.15727 20.9581 4.18811C21.0401 4.20345 21.0892 4.21545 21.1114 4.22157C21.1419 4.22999 21.0996 4.22108 21.0182 4.18307L22.7092 0.558112C22.358 0.394246 21.971 0.308214 21.6936 0.256319C21.3758 0.196861 21.0131 0.149588 20.626 0.11246L20.2441 4.09419Z" fill="#E8B171"/>
</svg>
