<svg width="33" height="32" viewBox="0 0 33 32" fill="none" xmlns="http://www.w3.org/2000/svg">
<path d="M1.19605 7.87742L7.80011 1.27342L1.04613 0.0914376C0.759757 0.0414672 0.466895 0.133912 0.261303 0.339505C0.0557102 0.545097 -0.0367945 0.837959 0.0134138 1.12434L1.19605 7.87742Z" fill="#E8B171"/>
<path d="M4.69653 10.8267L25.5559 31.6604C25.7233 31.8275 25.9501 31.9214 26.1865 31.9214H26.1879C26.4248 31.9211 26.6519 31.8264 26.819 31.6584L29.141 29.3247L7.66977 7.85336L4.69653 10.8267Z" fill="#E8B171"/>
<path d="M11.9061 3.6171L8.93164 6.59152L30.3998 28.0597L32.7389 25.7087C33.0859 25.36 33.0852 24.7962 32.7374 24.4483L11.9061 3.6171Z" fill="#E8B171"/>
<path d="M32.7391 8.90656C32.9065 8.73892 33.0004 8.51149 33.0001 8.27455C32.9997 8.03761 32.9051 7.81054 32.7371 7.64344L26.7875 1.72349C26.4387 1.3765 25.8749 1.37715 25.5271 1.72504L24.4315 2.82058L26.9915 5.38055C27.34 5.72898 27.34 6.294 26.9915 6.64248C26.8173 6.81678 26.5889 6.90387 26.3606 6.90387C26.1322 6.90387 25.9038 6.81678 25.7296 6.64248L23.1696 4.08251L21.4571 5.79501L24.0171 8.35498C24.3656 8.7034 24.3656 9.26843 24.0171 9.61691C23.8428 9.79121 23.6145 9.8783 23.3861 9.8783C23.1578 9.8783 22.9294 9.79121 22.7551 9.61691L20.1952 7.05694L19.0325 8.21964L26.233 15.4202L32.7391 8.90656Z" fill="#E8B171"/>
<path d="M8.13479 19.1172L10.6948 21.6772C11.0432 22.0256 11.0432 22.5906 10.6948 22.9391C10.5205 23.1133 10.2921 23.2005 10.0638 23.2005C9.83545 23.2005 9.60707 23.1133 9.43289 22.9391L6.87286 20.3791L5.1603 22.0916L7.72033 24.6516C8.06882 25.0001 8.06882 25.565 7.72033 25.9135C7.54609 26.0878 7.31771 26.1749 7.0894 26.1749C6.86102 26.1749 6.63264 26.0878 6.45846 25.9135L3.89843 23.3535L2.80265 24.4493C2.63531 24.6166 2.54126 24.8436 2.54126 25.0802C2.54126 25.3169 2.63531 25.5439 2.80265 25.7112L8.75073 31.6592C8.91808 31.8266 9.14502 31.9206 9.38167 31.9206H9.38191C9.61861 31.9205 9.84568 31.8263 10.013 31.6589L16.513 25.1512L9.30249 17.9495L8.13479 19.1172Z" fill="#E8B171"/>
</svg>
