<svg width="45" height="28" viewBox="0 0 45 28" fill="none" xmlns="http://www.w3.org/2000/svg">
<path fill-rule="evenodd" clip-rule="evenodd" d="M32.0801 0.768719C35.9816 1.68661 37.474 3.99961 39.3451 7.18317H32.0801V0.768719ZM9.27933 7.4505C10.0432 7.4505 10.5977 7.82434 10.5977 8.69802C10.5977 9.43491 10.0096 10.0326 9.2831 10.0347H1.31836C0.590172 10.0347 0 10.6334 0 11.3713C0 12.1096 0.590172 12.7079 1.31836 12.7079H13.1836C13.9186 12.7079 14.5071 13.3059 14.5071 14.0446C14.5071 14.7828 13.9169 15.3812 13.1887 15.3812H1.31836C0.590172 15.3812 0 15.9795 0 16.7178C0 17.4561 0.590172 18.0545 1.31836 18.0545H4.21875V22.0644C4.21875 22.8026 4.80892 23.401 5.53711 23.401H8.18722C8.65963 25.7603 10.7158 27.5 13.1396 27.5C15.5635 27.5 17.6197 25.7603 18.0921 23.401H31.4782C31.9506 25.7603 34.0068 27.5 36.4307 27.5C38.8545 27.5 40.9107 25.7603 41.3831 23.401H43.6816C44.4098 23.401 45 22.8026 45 22.0644V14.0446C45 10.1227 40.92 9.86235 40.9162 9.85644H30.7617C30.0335 9.85644 29.4434 9.25808 29.4434 8.5198V0.5H5.53711C4.80892 0.5 4.21875 1.09835 4.21875 1.83663V4.77723H2.63672C1.90853 4.77723 1.31836 5.37558 1.31836 6.11386C1.31836 6.85214 1.90853 7.4505 2.63672 7.4505H9.27933ZM38.1397 20.6435C39.0835 21.6004 39.0835 23.1525 38.1397 24.1093C36.6216 25.6486 34.0137 24.5535 34.0137 22.3762C34.0137 20.1993 36.6216 19.1043 38.1397 20.6435ZM14.8487 20.6435C15.7925 21.6004 15.7925 23.1525 14.8487 24.1093C13.3305 25.6486 10.7227 24.5535 10.7227 22.3762C10.7227 20.1993 13.3305 19.1043 14.8487 20.6435Z" fill="#E8B171"/>
</svg>
