<svg width="15" height="21" viewBox="0 0 15 21" fill="none" xmlns="http://www.w3.org/2000/svg">
<path d="M11.449 20.0367C10.9738 18.8512 10.8513 17.5737 11.0898 16.324C10.678 16.4912 10.2292 16.5842 9.75913 16.5842H8.70808V14.5494H9.75919C10.6331 14.5494 11.3442 13.8284 11.3442 12.9422V11.6743H13.3509V12.2614L15 11.1808L13.6747 8.61091C13.1461 7.74999 12.2782 7.15434 11.2936 6.97671L9.3414 6.62449C10.2214 6.0226 10.8013 5.00243 10.8013 3.84749C10.8013 2.00167 9.32033 0.5 7.50003 0.5C5.67974 0.5 4.19872 2.00167 4.19872 3.84749C4.19872 5.00243 4.77859 6.02253 5.6586 6.62442L3.70647 6.97664C2.72178 7.15428 1.85387 7.74992 1.3253 8.61084L0 11.1807L1.64912 12.2613V11.4247H3.65583V12.9421C3.65583 13.8284 4.36688 14.5493 5.24081 14.5493H6.29192V16.5841H5.24081C4.77077 16.5841 4.32193 16.4911 3.91008 16.3239C4.14862 17.5736 4.02621 18.8512 3.55088 20.0367L3.36513 20.5H11.6347L11.449 20.0367Z" fill="#E8B171"/>
</svg>
