<svg width="14" height="17" viewBox="0 0 14 17" fill="none" xmlns="http://www.w3.org/2000/svg">
<path fill-rule="evenodd" clip-rule="evenodd" d="M7.26577 15.9267C8.73063 15.1656 13.735 12.2061 13.735 7.29341C13.735 3.50059 10.6603 0.425903 6.86751 0.425903C3.07469 0.425903 0 3.50059 0 7.29341C0 12.2061 5.00439 15.1656 6.46925 15.9267C6.72202 16.058 7.01299 16.058 7.26577 15.9267ZM6.86763 10.2365C8.49312 10.2365 9.81084 8.91879 9.81084 7.29329C9.81084 5.6678 8.49312 4.35007 6.86763 4.35007C5.24213 4.35007 3.92441 5.6678 3.92441 7.29329C3.92441 8.91879 5.24213 10.2365 6.86763 10.2365Z" fill="#E89F71"/>
</svg>
