<svg width="19" height="19" viewBox="0 0 19 19" fill="none" xmlns="http://www.w3.org/2000/svg">
<path d="M16 9.5C16 7.93292 15.5419 6.40521 14.6899 5.13142C13.838 3.85762 12.6351 2.90174 11.2501 2.39802C9.86509 1.8943 8.36763 1.86805 6.96801 2.32295C5.56838 2.77785 4.3369 3.69104 3.44653 4.93429C2.55615 6.17753 2.0516 7.68837 2.00375 9.25461C1.95589 10.8208 2.36713 12.3638 3.17971 13.6668C3.99229 14.9698 5.16539 15.9673 6.53425 16.5193C7.90311 17.0713 9.39897 17.15 10.8117 16.7444" stroke="#E89F71" stroke-width="2" stroke-linecap="round"/>
<circle cx="9" cy="9" r="3" stroke="#E89F71" stroke-width="2"/>
<path d="M12 7V10C12 11.1046 12.8954 12 14 12V12C15.1046 12 16 11.1046 16 10V9.14286" stroke="#E89F71" stroke-width="2" stroke-linecap="round"/>
</svg>
