<svg width="13" height="19" viewBox="0 0 13 19" fill="none" xmlns="http://www.w3.org/2000/svg">
<path d="M12.9277 5.23919L9.12466 0.155211C9.01181 0.00439861 8.79982 -0.0436209 8.62829 0.0427326L4.20439 2.26929C4.15724 2.29304 4.1163 2.32559 4.08351 2.36437L0.0857321 7.11503C0.0231383 7.18943 -0.00709128 7.28406 0.0014072 7.37918L0.739261 15.6575C0.747411 15.7408 0.784625 15.8213 0.849276 15.8838L3.95378 18.8897C4.0274 18.961 4.12717 19 4.22989 19C4.30994 19 4.39357 18.9653 4.39357 18.9653L11.6503 15.7368C11.7765 15.6807 11.8574 15.5667 11.872 15.4413L12.267 11.9515C12.2783 11.8527 12.2488 11.7563 12.1836 11.6787C12.1188 11.6015 12.0261 11.5533 11.9233 11.5425C11.9093 11.541 11.8949 11.5402 11.881 11.5402C11.683 11.5402 11.5174 11.6824 11.4956 11.8709L11.3066 13.5419L9.97559 9.31628L12.0784 6.71996L11.8713 8.55113C11.8604 8.64947 11.8898 8.74632 11.9547 8.82351C12.0199 8.90107 12.1122 8.94935 12.2155 8.96011C12.2294 8.96159 12.2434 8.96233 12.2573 8.96233C12.456 8.96233 12.6218 8.81983 12.6431 8.63095L12.9978 5.49487C13.0076 5.40641 12.9845 5.31519 12.9277 5.23919ZM8.69027 0.850232L12.1283 5.44626L9.49797 8.69392L7.94585 7.33086L4.93619 2.73965L8.69027 0.850232ZM7.57623 11.9063C7.59105 11.8722 7.60044 11.8363 7.60421 11.7996L7.95567 8.3471L9.2051 9.44438L11.018 15.1996L4.97209 17.8894L7.57623 11.9063ZM4.34576 3.23636L7.24576 7.66024L6.8974 11.0825L4.61309 9.4966C4.52229 9.43355 4.40738 9.41121 4.29826 9.43522C4.18898 9.45919 4.09585 9.52725 4.04296 9.6218L1.4009 14.344L0.787963 7.46438L4.34576 3.23636ZM4.51728 10.3473L6.74186 11.8917L4.09585 17.971L1.6025 15.5569L4.51728 10.3473Z" fill="white"/>
</svg>
