<svg width="19" height="19" viewBox="0 0 19 19" fill="none" xmlns="http://www.w3.org/2000/svg">
<path d="M0.296875 18.9996C0.132703 18.9996 0 18.8109 0 18.5775V0.423785C0 0.19033 0.132703 0.00162506 0.296875 0.00162506C0.461046 0.00162506 0.593749 0.19033 0.593749 0.423785V18.5775C0.593749 18.8109 0.461046 18.9996 0.296875 18.9996Z" fill="white"/>
<path d="M1.18701 18.9985C1.02284 18.9985 0.890137 18.8098 0.890137 18.5763V0.423441C0.890137 0.189987 1.02284 0.00128174 1.18701 0.00128174C1.35118 0.00128174 1.48389 0.189987 1.48389 0.423441V18.5763C1.48389 18.8098 1.35118 18.9985 1.18701 18.9985Z" fill="white"/>
<path d="M3.56372 18.9991C3.39955 18.9991 3.26685 18.8104 3.26685 18.577V0.422419C3.26685 0.188965 3.39955 0.000259399 3.56372 0.000259399C3.72789 0.000259399 3.8606 0.188965 3.8606 0.422419V18.577C3.8606 18.8104 3.72789 18.9991 3.56372 18.9991Z" fill="white"/>
<path d="M5.93921 18.9991C5.77504 18.9991 5.64233 18.8104 5.64233 18.577V0.422419C5.64233 0.188965 5.77504 0.000259399 5.93921 0.000259399C6.10338 0.000259399 6.23608 0.188965 6.23608 0.422419V18.577C6.23608 18.8104 6.10338 18.9991 5.93921 18.9991Z" fill="white"/>
<path d="M8.31494 18.9991C8.15077 18.9991 8.01807 18.8104 8.01807 18.577V0.422419C8.01807 0.188965 8.15077 0.000259399 8.31494 0.000259399C8.47911 0.000259399 8.61182 0.188965 8.61182 0.422419V18.577C8.61182 18.8104 8.47911 18.9991 8.31494 18.9991Z" fill="white"/>
<path d="M10.6904 18.9991C10.5263 18.9991 10.3936 18.8104 10.3936 18.577V0.422419C10.3936 0.188965 10.5263 0.000259399 10.6904 0.000259399C10.8546 0.000259399 10.9873 0.188965 10.9873 0.422419V18.577C10.9873 18.8104 10.8546 18.9991 10.6904 18.9991Z" fill="white"/>
<path d="M13.0662 18.9991C12.902 18.9991 12.7693 18.8104 12.7693 18.577V0.422419C12.7693 0.188965 12.902 0.000259399 13.0662 0.000259399C13.2303 0.000259399 13.363 0.188965 13.363 0.422419V18.577C13.363 18.8104 13.23 18.9991 13.0662 18.9991Z" fill="white"/>
<path d="M15.4417 18.9991C15.2775 18.9991 15.1448 18.8104 15.1448 18.577V0.422419C15.1448 0.188965 15.2775 0.000259399 15.4417 0.000259399C15.6058 0.000259399 15.7385 0.188965 15.7385 0.422419V18.577C15.7385 18.8104 15.6055 18.9991 15.4417 18.9991Z" fill="white"/>
<path d="M1.1872 18.9988H0.296875C0.132703 18.9988 0 18.8101 0 18.5767C0 18.3432 0.132703 18.1545 0.296875 18.1545H1.1872C1.35137 18.1545 1.48408 18.3432 1.48408 18.5767C1.48408 18.8101 1.35137 18.9988 1.1872 18.9988Z" fill="white"/>
<path d="M17.8127 18.9988C17.6486 18.9988 17.5159 18.8101 17.5159 18.5766V0.42293C17.5159 0.189476 17.6486 0.000770569 17.8127 0.000770569C17.9769 0.000770569 18.1096 0.189476 18.1096 0.42293V18.5766C18.1096 18.8101 17.9769 18.9988 17.8127 18.9988Z" fill="white"/>
<path d="M18.7031 18.9985C18.539 18.9985 18.4062 18.8098 18.4062 18.5763V0.423441C18.4062 0.189987 18.539 0.00128174 18.7031 0.00128174C18.8673 0.00128174 19 0.189987 19 0.423441V18.5763C19 18.8098 18.8673 18.9985 18.7031 18.9985Z" fill="white"/>
<path d="M18.7031 18.9988H17.8127C17.6486 18.9988 17.5159 18.8101 17.5159 18.5767C17.5159 18.3432 17.6486 18.1545 17.8127 18.1545H18.7031C18.8672 18.1545 18.9999 18.3432 18.9999 18.5767C18.9999 18.8101 18.8672 18.9988 18.7031 18.9988Z" fill="white"/>
<path d="M17.8126 4.22325H1.18701C1.02284 4.22325 0.890137 4.03454 0.890137 3.80109C0.890137 3.56763 1.02284 3.37893 1.18701 3.37893H17.8126C17.9768 3.37893 18.1095 3.56763 18.1095 3.80109C18.1095 4.03454 17.9768 4.22325 17.8126 4.22325Z" fill="white"/>
<path d="M17.8126 17.3102H1.18701C1.02284 17.3102 0.890137 17.1215 0.890137 16.888C0.890137 16.6546 1.02284 16.4659 1.18701 16.4659H17.8126C17.9768 16.4659 18.1095 16.6546 18.1095 16.888C18.1095 17.1215 17.9768 17.3102 17.8126 17.3102Z" fill="white"/>
<path d="M17.8126 10.5556H1.18701C1.02284 10.5556 0.890137 10.3669 0.890137 10.1335C0.890137 9.90003 1.02284 9.71133 1.18701 9.71133H17.8126C17.9768 9.71133 18.1095 9.90003 18.1095 10.1335C18.1095 10.3669 17.9768 10.5556 17.8126 10.5556Z" fill="white"/>
<path d="M18.7031 0.845601H17.8127C17.6486 0.845601 17.5159 0.656895 17.5159 0.423441C17.5159 0.189987 17.6486 0.00128174 17.8127 0.00128174H18.7031C18.8672 0.00128174 18.9999 0.189987 18.9999 0.423441C18.9999 0.656895 18.8672 0.845601 18.7031 0.845601Z" fill="white"/>
<path d="M1.1872 0.845944H0.296875C0.132703 0.845944 0 0.657239 0 0.423785C0 0.19033 0.132703 0.00162506 0.296875 0.00162506H1.1872C1.35137 0.00162506 1.48408 0.19033 1.48408 0.423785C1.48408 0.657239 1.35137 0.845944 1.1872 0.845944Z" fill="white"/>
<path d="M3.84439 1.24421C3.76839 1.24421 3.69239 1.20284 3.6345 1.12052L3.35366 0.720732C3.23758 0.555667 3.23758 0.288441 3.35366 0.123798C3.46974 -0.0412661 3.65736 -0.0412661 3.77344 0.123798L4.05428 0.523583C4.17036 0.688648 4.17036 0.955875 4.05428 1.12052C3.99639 1.20326 3.92039 1.24421 3.84439 1.24421Z" fill="white"/>
<path d="M3.274 1.25603C3.198 1.25603 3.122 1.21466 3.06411 1.13234C2.94803 0.967273 2.94803 0.700046 3.06411 0.535404L3.35386 0.123798C3.46994 -0.0412661 3.65756 -0.0412661 3.77364 0.123798C3.88972 0.288863 3.88972 0.55609 3.77364 0.720732L3.48389 1.13234C3.426 1.21466 3.35 1.25603 3.274 1.25603Z" fill="white"/>
<path d="M6.22257 1.24421C6.14657 1.24421 6.07057 1.20284 6.01268 1.12052L5.73183 0.720732C5.61576 0.555667 5.61576 0.288441 5.73183 0.123798C5.84791 -0.0412661 6.03554 -0.0412661 6.15161 0.123798L6.43246 0.523583C6.54853 0.688648 6.54853 0.955875 6.43246 1.12052C6.37457 1.20326 6.29857 1.24421 6.22257 1.24421Z" fill="white"/>
<path d="M5.65242 1.25603C5.57642 1.25603 5.50042 1.21466 5.44253 1.13234C5.32645 0.967273 5.32645 0.700046 5.44253 0.535404L5.73228 0.123798C5.84835 -0.0412661 6.03598 -0.0412661 6.15206 0.123798C6.26814 0.288863 6.26814 0.55609 6.15206 0.720732L5.86231 1.13234C5.80442 1.21466 5.72842 1.25603 5.65242 1.25603Z" fill="white"/>
<path d="M8.60099 1.24421C8.52499 1.24421 8.44899 1.20284 8.39109 1.12052L8.11025 0.720732C7.99417 0.555667 7.99417 0.288441 8.11025 0.123798C8.22633 -0.0412661 8.41395 -0.0412661 8.53003 0.123798L8.81088 0.523583C8.92695 0.688648 8.92695 0.955875 8.81088 1.12052C8.75269 1.20326 8.67698 1.24421 8.60099 1.24421Z" fill="white"/>
<path d="M8.03035 1.25603C7.95435 1.25603 7.87835 1.21466 7.82046 1.13234C7.70438 0.967273 7.70438 0.700046 7.82046 0.535404L8.11021 0.123798C8.22628 -0.0412661 8.41391 -0.0412661 8.52999 0.123798C8.64606 0.288863 8.64606 0.55609 8.52999 0.720732L8.24024 1.13234C8.18235 1.21466 8.10635 1.25603 8.03035 1.25603Z" fill="white"/>
<path d="M10.9789 1.24421C10.9029 1.24421 10.8269 1.20284 10.769 1.12052L10.4882 0.720732C10.3721 0.555667 10.3721 0.288441 10.4882 0.123798C10.6043 -0.0412661 10.7919 -0.0412661 10.908 0.123798L11.1888 0.523583C11.3049 0.688648 11.3049 0.955875 11.1888 1.12052C11.1309 1.20326 11.0549 1.24421 10.9789 1.24421Z" fill="white"/>
<path d="M10.4088 1.25603C10.3328 1.25603 10.2568 1.21466 10.1989 1.13234C10.0828 0.967273 10.0828 0.700046 10.1989 0.535404L10.4886 0.123798C10.6047 -0.0412661 10.7923 -0.0412661 10.9084 0.123798C11.0245 0.288863 11.0245 0.55609 10.9084 0.720732L10.6187 1.13234C10.5605 1.21466 10.4845 1.25603 10.4088 1.25603Z" fill="white"/>
<path d="M13.3573 1.24421C13.2813 1.24421 13.2053 1.20284 13.1474 1.12052L12.8666 0.720732C12.7505 0.555667 12.7505 0.288441 12.8666 0.123798C12.9827 -0.0412661 13.1703 -0.0412661 13.2864 0.123798L13.5672 0.523583C13.6833 0.688648 13.6833 0.955875 13.5672 1.12052C13.5093 1.20326 13.4333 1.24421 13.3573 1.24421Z" fill="white"/>
<path d="M12.7867 1.25603C12.7107 1.25603 12.6347 1.21466 12.5768 1.13234C12.4607 0.967273 12.4607 0.700046 12.5768 0.535404L12.8666 0.123798C12.9826 -0.0412661 13.1703 -0.0412661 13.2863 0.123798C13.4024 0.288863 13.4024 0.55609 13.2863 0.720732L12.9966 1.13234C12.9387 1.21466 12.8627 1.25603 12.7867 1.25603Z" fill="white"/>
<path d="M15.7355 1.24421C15.6595 1.24421 15.5835 1.20284 15.5256 1.12052L15.2448 0.720732C15.1287 0.555667 15.1287 0.288441 15.2448 0.123798C15.3609 -0.0412661 15.5485 -0.0412661 15.6646 0.123798L15.9454 0.523583C16.0615 0.688648 16.0615 0.955875 15.9454 1.12052C15.8875 1.20326 15.8115 1.24421 15.7355 1.24421Z" fill="white"/>
<path d="M15.1649 1.25603C15.0889 1.25603 15.0129 1.21466 14.955 1.13234C14.8389 0.967273 14.8389 0.700046 14.955 0.535404L15.2447 0.123798C15.3608 -0.0412661 15.5484 -0.0412661 15.6645 0.123798C15.7806 0.288863 15.7806 0.55609 15.6645 0.720732L15.3748 1.13234C15.3169 1.21466 15.2409 1.25603 15.1649 1.25603Z" fill="white"/>
</svg>
