<svg width="17" height="19" viewBox="0 0 17 19" fill="none" xmlns="http://www.w3.org/2000/svg">
<path d="M2.98828 1.11328H6.10586V0H2.26787L0.664062 1.79249V11.9971H2.98828V1.11328Z" fill="white"/>
<path d="M6.04248 10.1141H10.9575V11.997H6.04248V10.1141Z" fill="white"/>
<path d="M14.0069 1.11328V11.9971H16.3311V1.79249L14.7273 0H10.894V1.11328H14.0069Z" fill="white"/>
<path d="M7.06885 0H9.93136V2.60207H7.06885V0Z" fill="white"/>
<path d="M8.99815 7.62682V5.60143H9.93136V3.71545H7.06885V5.60143H8.00206V7.62682H8.99815Z" fill="white"/>
<path d="M0.718506 19.0001H3.57819L3.91022 17.7761H13.0896L13.4217 19.0001H16.2813V16.3289H0.718506V19.0001Z" fill="white"/>
<path d="M0 13.0733H17V15.2526H0V13.0733Z" fill="white"/>
</svg>
