<svg width="18" height="23" viewBox="0 0 18 23" fill="none" xmlns="http://www.w3.org/2000/svg">
<g clip-path="url(#clip0)">
<path d="M8.4375 2L0.9375 6L8.4375 10L15.9375 6L8.4375 2Z" stroke="white" stroke-width="2" stroke-linejoin="round"/>
<path fill-rule="evenodd" clip-rule="evenodd" d="M3.90139 9.93881L0.544975 11.6539C0.210493 11.8248 0 12.1688 0 12.5444C0 12.92 0.210493 13.2639 0.544975 13.4349L7.98248 17.2353C8.26825 17.3814 8.60675 17.3814 8.89252 17.2353L16.33 13.4349C16.6645 13.2639 16.875 12.92 16.875 12.5444C16.875 12.1688 16.6645 11.8248 16.33 11.6539L12.9736 9.93881L10.7759 11.0618L13.6773 12.5444L8.4375 15.2219L3.19768 12.5444L6.09907 11.0618L3.90139 9.93881ZM8.39821 7.74467C8.42439 7.74364 8.45061 7.74364 8.47679 7.74467L8.4375 7.76474L8.39821 7.74467Z" fill="#FFFEFB"/>
<path fill-rule="evenodd" clip-rule="evenodd" d="M2.66185 15.6398L0.544975 16.7215C0.210493 16.8924 0 17.2364 0 17.612C0 17.9876 0.210493 18.3316 0.544975 18.5025L7.98248 22.303C8.26825 22.449 8.60675 22.449 8.89252 22.303L16.33 18.5025C16.6645 18.3316 16.875 17.9876 16.875 17.612C16.875 17.2364 16.6645 16.8924 16.33 16.7215L14.2132 15.6398L12.0155 16.7628L13.6773 17.612L8.4375 20.2895L3.19768 17.612L4.85953 16.7628L2.66185 15.6398ZM7.05721 13.3938L7.98248 12.921C8.26825 12.775 8.60675 12.775 8.89252 12.921L9.81779 13.3938L8.4375 14.0992L7.05721 13.3938Z" fill="white"/>
</g>
<defs>
<clipPath id="clip0">
<rect width="18" height="23" fill="white"/>
</clipPath>
</defs>
</svg>
