<svg width="19" height="19" viewBox="0 0 19 19" fill="none" xmlns="http://www.w3.org/2000/svg">
<path d="M18.6041 10.45H16.625V8.54995H17.8125C18.031 8.54995 18.2083 8.33713 18.2083 8.07493V5.22494V2.37498C18.2083 2.11278 18.031 1.89997 17.8125 1.89997H16.625V1.425C16.625 0.639335 16.0922 0 15.4375 0C14.7828 0 14.25 0.639335 14.25 1.425V1.90001H4.74999V1.425C4.74999 0.639335 4.21721 0 3.56249 0C2.90777 0 2.375 0.639335 2.375 1.425V1.90001H1.1875C0.968998 1.90001 0.791653 2.11283 0.791653 2.37503V5.22503V8.07502C0.791653 8.33722 0.968998 8.55004 1.1875 8.55004H2.375V10.4501H0.395845C0.177345 10.45 0 10.6628 0 10.925V12.825C0 13.0872 0.177345 13.3 0.395845 13.3H0.79169V18.525C0.79169 18.7872 0.969035 19 1.18753 19H2.77088C2.98938 19 3.16672 18.7872 3.16672 18.525V13.3H15.8334V18.5249C15.8334 18.7871 16.0107 19 16.2292 19H17.8125C18.031 19 18.2083 18.7871 18.2083 18.5249V13.3H18.6042C18.8227 13.3 19 13.0871 19 12.8249V10.925C19 10.6628 18.8226 10.45 18.6041 10.45ZM15.0416 1.425C15.0416 1.1628 15.2198 0.949984 15.4375 0.949984C15.6552 0.949984 15.8333 1.1628 15.8333 1.425V1.90001H15.0417V1.425H15.0416ZM3.16665 1.425C3.16665 1.1628 3.34477 0.949984 3.56249 0.949984C3.78021 0.949984 3.95834 1.1628 3.95834 1.425V1.90001H3.16665V1.425ZM1.58334 2.85H2.77084H4.35418H14.6458H16.2292H17.4167V4.75001H1.58334V2.85ZM1.58334 7.59996V5.69995H17.4167V7.59996H16.2292H14.6458H4.35415H2.77084H1.58334ZM15.8333 8.54999V10.45H15.0417V8.54999H15.8333ZM14.25 8.54999V10.45H4.74999V8.54999H14.25ZM3.95834 8.54999V10.45H3.16665V8.54999H3.95834ZM2.375 18.05H1.58334V13.3H2.375V18.05ZM17.4166 18.05H16.625V13.3H17.4166V18.05ZM18.2083 12.35H17.8125H16.2291H2.77084H1.1875H0.791653V11.4H2.7708H4.35415H14.6458H16.2291H18.2083V12.35H18.2083Z" fill="white"/>
</svg>
