<svg width="19" height="19" viewBox="0 0 19 19" fill="none" xmlns="http://www.w3.org/2000/svg">
<path fill-rule="evenodd" clip-rule="evenodd" d="M2.17157 2.3001C1 3.47167 1 5.35729 1 9.12852V10.4619C1 14.2331 1 16.1187 2.17157 17.2903C3.34315 18.4619 5.22876 18.4619 9 18.4619H10C13.7712 18.4619 15.6569 18.4619 16.8284 17.2903C18 16.1187 18 14.2331 18 10.4619V9.12853C18 6.43887 18 4.70835 17.575 3.51194V14.1285C16.7595 14.1285 15.9782 13.8005 15.4072 13.2183L14.7643 12.5628L14.7643 12.5628L14.7643 12.5628C14.3593 12.1498 14.1568 11.9433 13.9488 11.8152C13.3057 11.4191 12.4943 11.4191 11.8511 11.8152C11.6431 11.9433 11.4406 12.1498 11.0356 12.5628L11.0356 12.5628L11.0356 12.5628L10.9431 12.6571L10.9431 12.6571C10.597 13.01 10.424 13.1864 10.2565 13.2633C9.86873 13.4414 9.41067 13.3539 9.11594 13.0453C8.98864 12.912 8.89288 12.6842 8.70135 12.2285L8.70134 12.2285L8.64998 12.1063C8.17506 10.9764 7.93761 10.4115 7.59297 10.1082C7.04673 9.62756 6.28253 9.48147 5.5975 9.72676C5.16531 9.88152 4.73621 10.319 3.87802 11.194L2.27498 12.8285V2.20142C2.2399 2.23335 2.20544 2.26623 2.17157 2.3001Z" fill="white"/>
<path d="M1.5 9C1.5 7.10025 1.50106 5.72573 1.64199 4.67754C1.78098 3.64373 2.04772 3.00253 2.52513 2.52513C3.00253 2.04772 3.64373 1.78098 4.67754 1.64199C5.72573 1.50106 7.10025 1.5 9 1.5H10C11.8998 1.5 13.2743 1.50106 14.3225 1.64199C15.3563 1.78098 15.9975 2.04772 16.4749 2.52513C16.9523 3.00253 17.219 3.64373 17.358 4.67754C17.4989 5.72573 17.5 7.10025 17.5 9V11C17.5 12.8998 17.4989 14.2743 17.358 15.3225C17.219 16.3563 16.9523 16.9975 16.4749 17.4749C15.9975 17.9523 15.3563 18.219 14.3225 18.358C13.2743 18.4989 11.8998 18.5 10 18.5H9C7.10025 18.5 5.72573 18.4989 4.67754 18.358C3.64373 18.219 3.00253 17.9523 2.52513 17.4749C2.04772 16.9975 1.78098 16.3563 1.64199 15.3225C1.50106 14.2743 1.5 12.8998 1.5 11V9Z" stroke="white"/>
<circle cx="13" cy="7" r="2" fill="white"/>
</svg>
