<svg width="9" height="9" viewBox="0 0 9 9" fill="none" xmlns="http://www.w3.org/2000/svg">
<path fill-rule="evenodd" clip-rule="evenodd" d="M8.96776 6.68587C8.91243 6.58637 8.76483 6.52668 8.5434 6.40725C8.32196 6.28787 7.23329 5.71091 7.03027 5.63124C6.82734 5.55167 6.67966 5.51191 6.53207 5.75062C6.38447 5.98937 5.9601 6.52668 5.83093 6.68587C5.70175 6.84501 5.57257 6.86499 5.35122 6.74556C5.12979 6.62618 4.41629 6.37433 3.57048 5.56169C2.91219 4.9292 2.46779 4.14816 2.33862 3.90936C2.20945 3.67057 2.32485 3.54152 2.4357 3.42259C2.53533 3.31568 2.65716 3.14393 2.76786 3.00469C2.87857 2.86546 2.91548 2.7659 2.98929 2.60682C3.0631 2.44756 3.0262 2.30833 2.97083 2.18893C2.91548 2.06953 2.47263 0.895484 2.28811 0.417893C2.10835 -0.0472081 1.92581 0.0157973 1.78989 0.0084497C1.66088 0.00146951 1.5131 0 1.36549 0C1.21788 0 0.97797 0.0596989 0.775004 0.298495C0.572038 0.53729 0 1.11435 0 2.28831C0 3.46235 0.793447 4.59654 0.904173 4.75571C1.01488 4.91497 2.46559 7.3241 4.68692 8.35727C5.21523 8.60304 5.62765 8.7498 5.94928 8.85971C6.47971 9.04129 6.96249 9.01567 7.34397 8.95423C7.76944 8.88577 8.65407 8.37727 8.83867 7.82013C9.0231 7.26288 9.0231 6.78532 8.96776 6.68587Z" fill="white"/>
</svg>
