<svg width="10" height="11" viewBox="0 0 10 11" fill="none" xmlns="http://www.w3.org/2000/svg">
<path fill-rule="evenodd" clip-rule="evenodd" d="M5.93364 0.0349744C6.4908 0.1014 6.94105 0.229616 7.43506 0.459795C7.92094 0.686896 8.2319 0.901622 8.6433 1.29246C9.02878 1.66167 9.24258 1.9413 9.46932 2.37538C9.78516 2.98096 9.96494 3.70085 9.9957 4.49334C10.0071 4.76368 9.99896 4.82394 9.93416 4.90117C9.81107 5.05104 9.54057 5.02629 9.44828 4.85792C9.4191 4.8023 9.41101 4.75443 9.40129 4.53814C9.38509 4.206 9.36082 3.99128 9.31222 3.73483C9.12111 2.72916 8.61577 1.92584 7.80918 1.34961C7.13703 0.867638 6.4422 0.632813 5.53198 0.58184C5.22424 0.564848 5.1708 0.554045 5.10116 0.503058C4.97156 0.40573 4.9651 0.177104 5.0898 0.0705116C5.16593 0.00407197 5.21937 -0.00519202 5.48338 0.00253274C5.62105 0.00716473 5.8235 0.0226143 5.93364 0.0349744Z" fill="white"/>
<path fill-rule="evenodd" clip-rule="evenodd" d="M1.81571 1.04802C1.86778 1.0677 1.94808 1.11364 1.99419 1.14646C2.27673 1.3532 3.06344 2.46396 3.32073 3.01854C3.46794 3.33519 3.51701 3.56981 3.47093 3.74373C3.42332 3.93078 3.34452 4.02923 2.99206 4.34261C2.85078 4.46893 2.71841 4.59855 2.69761 4.63301C2.64407 4.71834 2.60092 4.88569 2.60092 5.00382C2.60243 5.27782 2.76304 5.77496 2.97422 6.15726C3.13779 6.45423 3.43076 6.83486 3.72076 7.12693C4.06132 7.47149 4.36172 7.70609 4.70079 7.89151C5.13653 8.13105 5.40274 8.19175 5.59756 8.09168C5.64663 8.06707 5.69867 8.03425 5.71505 8.0195C5.7299 8.00472 5.84442 7.85049 5.96935 7.67987C6.21026 7.34514 6.26528 7.29101 6.43036 7.22866C6.64006 7.14991 6.85421 7.17122 7.06983 7.29264C7.23343 7.38617 7.59034 7.63064 7.82085 7.80783C8.12422 8.04246 8.77261 8.62656 8.86038 8.74307C9.01503 8.95308 9.04182 9.22213 8.93769 9.51913C8.82764 9.83249 8.39935 10.4199 8.10042 10.6709C7.82977 10.8973 7.63793 10.9843 7.38511 10.9974C7.17692 11.0089 7.09066 10.9892 6.82445 10.8678C4.7365 9.91781 3.06939 8.50024 1.74581 6.55267C1.0543 5.53542 0.527836 4.48043 0.167931 3.38606C-0.0417429 2.74783 -0.0521458 2.47054 0.120343 2.14403C0.194716 2.00622 0.511478 1.66494 0.741982 1.47462C1.12568 1.15959 1.30264 1.04309 1.44392 1.01029C1.54059 0.987314 1.70863 1.00536 1.81571 1.04802Z" fill="white"/>
<path fill-rule="evenodd" clip-rule="evenodd" d="M5.76235 1.03447C6.90988 1.19492 7.79838 1.70336 8.38064 2.52909C8.7077 2.99425 8.91186 3.54053 8.98181 4.12648C9.00637 4.34103 9.00637 4.73227 8.97993 4.79718C8.95533 4.85846 8.87593 4.94141 8.80786 4.97565C8.73414 5.01171 8.57726 5.00812 8.49029 4.96484C8.3447 4.89453 8.30124 4.78274 8.30124 4.47985C8.30124 4.0129 8.17457 3.5207 7.9553 3.13848C7.70575 2.70217 7.3428 2.34159 6.90043 2.09097C6.52044 1.87462 5.95898 1.71417 5.44666 1.67451C5.26138 1.66008 5.1593 1.62402 5.08935 1.5465C4.98162 1.4293 4.97025 1.27065 5.06099 1.13904C5.1593 0.993002 5.31053 0.969561 5.76235 1.03447Z" fill="white"/>
<path fill-rule="evenodd" clip-rule="evenodd" d="M6.0186 2.05721C6.51406 2.15972 6.89386 2.34275 7.21829 2.63806C7.63578 3.02119 7.86468 3.4849 7.96526 4.15116C8.03316 4.58557 8.0055 4.75639 7.84704 4.89794C7.69866 5.02972 7.42455 5.03461 7.25853 4.91015C7.13781 4.82228 7.10007 4.72955 7.07241 4.47819C7.03973 4.14383 6.97935 3.90955 6.87627 3.69233C6.65492 3.23109 6.2651 2.99191 5.60617 2.91382C5.29678 2.8772 5.20372 2.84304 5.10314 2.72835C4.91953 2.51602 4.98994 2.17192 5.24396 2.045C5.33957 1.99864 5.37981 1.99375 5.59104 2.00596C5.72183 2.01328 5.91551 2.03524 6.0186 2.05721Z" fill="white"/>
</svg>
